<svg width="58" height="58" viewBox="0 0 58 58" fill="none" xmlns="http://www.w3.org/2000/svg">
<rect width="58" height="58" fill="#1E1E1E"/>
<path d="M21.824 42.632C19.584 42.632 17.824 42.248 16.544 41.48C15.264 40.744 14.624 39.688 14.624 38.312C14.624 36.904 15.04 35.608 15.872 34.424C16.704 33.208 17.776 32.168 19.088 31.304C20.432 30.408 21.824 29.72 23.264 29.24C24.736 28.728 26.096 28.472 27.344 28.472C27.984 28.472 28.304 28.568 28.304 28.76C28.304 29.048 27.968 29.192 27.296 29.192C26.112 29.192 24.816 29.48 23.408 30.056C22.032 30.632 20.8 31.432 19.712 32.456C18.848 33.224 18.192 34.008 17.744 34.808C17.328 35.576 17.12 36.296 17.12 36.968C17.12 37.96 17.584 38.792 18.512 39.464C19.44 40.104 20.832 40.424 22.688 40.424C23.776 40.424 24.88 40.344 26 40.184C27.12 39.992 28.128 39.784 29.024 39.56C29.952 39.336 30.656 39.16 31.136 39.032C32.32 38.648 33.504 38.184 34.688 37.64C35.904 37.096 36.992 36.488 37.952 35.816C38.912 35.112 39.616 34.408 40.064 33.704C40.32 33.32 40.496 32.952 40.592 32.6C40.72 32.248 40.784 31.912 40.784 31.592C40.784 30.696 40.384 29.944 39.584 29.336C38.784 28.696 37.76 28.12 36.512 27.608C35.264 27.096 33.936 26.616 32.528 26.168C31.12 25.688 29.792 25.192 28.544 24.68C27.296 24.168 26.272 23.592 25.472 22.952C24.672 22.28 24.272 21.48 24.272 20.552C24.272 19.496 24.656 18.552 25.424 17.72C26.224 16.856 27.232 16.104 28.448 15.464C29.696 14.792 31.024 14.248 32.432 13.832C33.84 13.384 35.184 13.048 36.464 12.824C37.744 12.6 38.8 12.488 39.632 12.488C43.152 12.488 44.912 13.368 44.912 15.128C44.912 15.832 44.624 16.648 44.048 17.576C43.792 18.056 43.424 18.52 42.944 18.968C42.464 19.384 42.096 19.592 41.84 19.592C41.648 19.592 41.552 19.48 41.552 19.256C41.552 19.16 41.728 18.968 42.08 18.68C42.432 18.36 42.784 17.976 43.136 17.528C43.488 17.08 43.664 16.632 43.664 16.184C43.664 15.512 43.28 15 42.512 14.648C41.776 14.296 40.8 14.12 39.584 14.12C39.008 14.12 38.176 14.216 37.088 14.408C36 14.568 34.816 14.84 33.536 15.224C32.256 15.608 31.024 16.12 29.84 16.76C27.632 17.976 26.528 19.016 26.528 19.88C26.528 20.52 27.152 21.128 28.4 21.704C29.328 22.12 30.4 22.552 31.616 23C32.832 23.448 34.064 23.928 35.312 24.44C36.56 24.952 37.712 25.528 38.768 26.168C39.856 26.808 40.72 27.528 41.36 28.328C42.032 29.096 42.368 29.976 42.368 30.968C42.368 32.312 41.632 33.688 40.16 35.096C39.008 36.184 37.664 37.192 36.128 38.12C34.624 39.048 33.024 39.848 31.328 40.52C29.664 41.192 28.016 41.704 26.384 42.056C24.752 42.44 23.232 42.632 21.824 42.632Z" fill="#B392FB"/>
</svg>
