<svg width="38" height="38" viewBox="0 0 38 38" fill="none" xmlns="http://www.w3.org/2000/svg">
<path d="M18.9976 1.00001C14.7248 0.995664 10.5902 2.55309 7.33476 5.39318C4.07928 8.23327 1.91573 12.1704 1.23184 16.4989C0.547954 20.8274 1.38843 25.2644 3.60266 29.0147C5.81688 32.7651 9.26011 35.5835 13.3153 36.965C14.212 37.1269 14.4984 36.5849 14.4984 36.0975C14.4984 35.6576 14.5069 34.4346 14.4984 32.8878C9.49333 34.0017 8.4594 30.4576 8.4594 30.4576C8.12983 29.3424 7.42254 28.385 6.46528 27.7582C4.83294 26.6144 6.58702 26.6355 6.58702 26.6355C7.15708 26.7158 7.70172 26.9287 8.17929 27.2581C8.65686 27.5875 9.05472 28.0246 9.34244 28.536C9.58594 28.9909 9.91487 29.3918 10.3102 29.7154C10.7056 30.0391 11.1595 30.2791 11.6458 30.4216C12.1321 30.5641 12.6411 30.6063 13.1434 30.5458C13.6456 30.4852 14.1312 30.323 14.5721 30.0687C14.6578 29.1361 15.0608 28.265 15.714 27.6104C11.7224 27.1423 7.52492 25.5603 7.52492 18.488C7.49887 16.6539 8.16203 14.88 9.37674 13.5344C8.82712 11.9437 8.89029 10.1976 9.55334 8.653C9.55334 8.653 11.0657 8.15677 14.4966 10.5465C17.4439 9.71648 20.5546 9.71648 23.5019 10.5465C26.9432 8.15853 28.4418 8.653 28.4418 8.653C29.1054 10.198 29.1688 11.9437 28.6201 13.5344C29.8354 14.8802 30.4981 16.6552 30.4702 18.4898C30.4702 25.5814 26.2659 27.1405 22.2588 27.5946C22.6891 28.0382 23.0217 28.5714 23.2341 29.1582C23.4464 29.745 23.5337 30.3717 23.4899 30.9961V36.1063C23.4899 36.599 23.7814 37.1445 24.6936 36.965C28.7477 35.5811 32.1893 32.761 34.4016 29.0098C36.6139 25.2585 37.4525 20.8214 36.767 16.4934C36.0816 12.1654 33.9169 8.22929 30.6608 5.39028C27.4048 2.55127 23.2701 0.994902 18.9976 1.00001Z" stroke="white" stroke-linecap="round" stroke-linejoin="round"/>
</svg>
