<svg width="42" height="42" viewBox="0 0 42 42" fill="none" xmlns="http://www.w3.org/2000/svg">
<path d="M1 4.80952C1 5.81987 1.40136 6.78884 2.11578 7.50326C2.83021 8.21769 3.79917 8.61905 4.80952 8.61905C5.81987 8.61905 6.78884 8.21769 7.50326 7.50326C8.21769 6.78884 8.61905 5.81987 8.61905 4.80952C8.61905 3.79918 8.21769 2.83021 7.50326 2.11578C6.78884 1.40136 5.81987 1 4.80952 1C3.79917 1 2.83021 1.40136 2.11578 2.11578C1.40136 2.83021 1 3.79918 1 4.80952Z" stroke="white" stroke-linejoin="round"/>
<path d="M1 41V14.3333H8.61905V41H1Z" stroke="white" stroke-linejoin="round"/>
<path d="M13.381 14.3333V41H21V27.8419C21 25.7619 22.9048 21.9524 28.419 21.9524C31.5486 21.9524 33.3809 23.5619 33.3809 26.7143V41H41V26.7143C41 24.2209 40.4057 21.12 38.3448 18.5676C36.1657 15.8685 32.7962 14.3333 28.4209 14.3333C25.539 14.3333 23.021 15.5047 21 16.9352V14.3333H13.381Z" stroke="white" stroke-linejoin="round"/>
</svg>
