<svg width="24" height="24" viewBox="0 0 24 24" fill="none" xmlns="http://www.w3.org/2000/svg">
<path d="M12 0.710022C13.9891 0.710022 15.8968 1.5002 17.3033 2.90672C18.7098 4.31324 19.5 6.2209 19.5 8.21002C19.5 11.757 14 20.591 12.421 23.06C12.3758 23.1306 12.3135 23.1887 12.2399 23.229C12.1664 23.2692 12.0839 23.2903 12 23.2903C11.9161 23.2903 11.8336 23.2692 11.7601 23.229C11.6865 23.1887 11.6242 23.1306 11.579 23.06C10 20.592 4.5 11.757 4.5 8.21002C4.5 6.2209 5.29018 4.31324 6.6967 2.90672C8.10322 1.5002 10.0109 0.710022 12 0.710022Z" stroke="white" stroke-linecap="round" stroke-linejoin="round"/>
<path d="M9 8.21002C9 9.00567 9.31607 9.76873 9.87868 10.3313C10.4413 10.894 11.2044 11.21 12 11.21C12.7956 11.21 13.5587 10.894 14.1213 10.3313C14.6839 9.76873 15 9.00567 15 8.21002C15 7.41437 14.6839 6.65131 14.1213 6.0887C13.5587 5.52609 12.7956 5.21002 12 5.21002C11.2044 5.21002 10.4413 5.52609 9.87868 6.0887C9.31607 6.65131 9 7.41437 9 8.21002Z" stroke="white" stroke-linecap="round" stroke-linejoin="round"/>
</svg>
