<svg width="38" height="38" viewBox="0 0 38 38" fill="none" xmlns="http://www.w3.org/2000/svg">
<path d="M7.19715 17.9046C7.11596 17.9364 7.04613 17.9917 6.99665 18.0635C6.94716 18.1353 6.92027 18.2203 6.91943 18.3075C6.91943 18.4823 7.03429 18.6469 7.19715 18.7086L12.3177 20.5772L22.8674 15.1309C22.9232 15.105 22.9863 15.0994 23.0457 15.1151C23.1052 15.1307 23.1573 15.1666 23.1931 15.2166C23.2267 15.268 23.2413 15.3295 23.2344 15.3905C23.2275 15.4515 23.1996 15.5082 23.1554 15.5509L15.5834 22.2263L24.0109 28.3257C24.1257 28.408 24.28 28.4286 24.412 28.3806C24.4778 28.3554 24.5365 28.3147 24.5831 28.2618C24.6297 28.209 24.6627 28.1456 24.6794 28.0772L28.8931 10.3549C28.9106 10.2791 28.9074 10.1999 28.8838 10.1258C28.8603 10.0516 28.8174 9.9851 28.7594 9.93317C28.7005 9.88231 28.6291 9.84817 28.5525 9.8343C28.4759 9.82043 28.397 9.82734 28.324 9.85431L7.19715 17.9046Z" stroke="white" stroke-linecap="round" stroke-linejoin="round"/>
<path d="M12.3178 20.5788L13.6361 27.2937C13.6772 27.4857 13.8589 27.6331 14.0544 27.6331C14.1522 27.6314 14.2466 27.5971 14.3227 27.5356C14.3988 27.4741 14.4522 27.389 14.4744 27.2937L15.5766 22.2262" stroke="white" stroke-linecap="round" stroke-linejoin="round"/>
<path d="M18.784 24.5491L14.3269 27.5457" stroke="white" stroke-linecap="round" stroke-linejoin="round"/>
<path d="M0.950317 18.8646C0.950317 23.6385 2.84674 28.2168 6.2224 31.5925C9.59805 34.9681 14.1764 36.8646 18.9503 36.8646C23.7242 36.8646 28.3026 34.9681 31.6782 31.5925C35.0539 28.2168 36.9503 23.6385 36.9503 18.8646C36.9503 14.0907 35.0539 9.5123 31.6782 6.13664C28.3026 2.76099 23.7242 0.864563 18.9503 0.864563C14.1764 0.864563 9.59805 2.76099 6.2224 6.13664C2.84674 9.5123 0.950317 14.0907 0.950317 18.8646Z" stroke="white" stroke-linejoin="round"/>
</svg>
