<svg width="49" height="51" viewBox="0 0 49 51" fill="none" xmlns="http://www.w3.org/2000/svg">
<path d="M4.11667 1H44.6333C44.6333 1 47.75 1 47.75 4.22471V46.1459C47.75 46.1459 47.75 49.3707 44.6333 49.3707H4.11667C4.11667 49.3707 1 49.3707 1 46.1459V4.22471C1 4.22471 1 1 4.11667 1Z" stroke="white" stroke-width="1.5" stroke-linecap="round" stroke-linejoin="round"/>
<path d="M15.0001 21.9606C13.3469 21.9606 11.7615 22.6402 10.5925 23.8497C9.42351 25.0591 8.76678 26.6997 8.76678 28.4101V31.6348C8.76678 33.3452 9.42351 34.9857 10.5925 36.1951C11.7615 37.4046 13.3469 38.0842 15.0001 38.0842" stroke="white" stroke-width="1.5" stroke-linecap="round" stroke-linejoin="round"/>
<path d="M27.4668 21.9606H24.3501C23.5236 21.9606 22.7307 22.3003 22.1462 22.905C21.5617 23.5098 21.2335 24.3301 21.2335 25.1853C21.2335 30.0224 27.4668 30.0224 27.4668 34.8595C27.4668 35.7147 27.1385 36.535 26.554 37.1398C25.9695 37.7445 25.1767 38.0842 24.3501 38.0842H21.2335" stroke="white" stroke-width="1.5" stroke-linecap="round" stroke-linejoin="round"/>
<path d="M39.9335 21.9606H36.8168C35.9903 21.9606 35.1974 22.3003 34.6129 22.905C34.0284 23.5098 33.7001 24.3301 33.7001 25.1853C33.7001 30.0224 39.9335 30.0224 39.9335 34.8595C39.9335 35.7147 39.6052 36.535 39.0207 37.1398C38.4362 37.7445 37.6433 38.0842 36.8168 38.0842H33.7001" stroke="white" stroke-width="1.5" stroke-linecap="round" stroke-linejoin="round"/>
</svg>
