<svg width="48" height="50" viewBox="0 0 48 50" fill="none" xmlns="http://www.w3.org/2000/svg">
<path d="M4.06667 1H43.9333C43.9333 1 47 1 47 4.2V45.8C47 45.8 47 49 43.9333 49H4.06667C4.06667 49 1 49 1 45.8V4.2C1 4.2 1 1 4.06667 1Z" stroke="white" stroke-width="1.5" stroke-linecap="round" stroke-linejoin="round"/>
<path d="M12.04 34.336C12.2747 34.4213 12.5733 34.5067 12.936 34.592C13.2987 34.656 13.6933 34.688 14.12 34.688C15.1653 34.688 15.9227 34.336 16.392 33.632C16.8613 32.9067 17.096 31.9147 17.096 30.656V19.68C17.096 19.4453 17.1707 19.2533 17.32 19.104C17.4907 18.9547 17.6827 18.88 17.896 18.88C18.1307 18.88 18.3227 18.9547 18.472 19.104C18.6213 19.2533 18.696 19.4453 18.696 19.68V30.656C18.696 32.5973 18.2907 34.0267 17.48 34.944C16.6907 35.84 15.5707 36.288 14.12 36.288C13.032 36.288 11.976 36.064 10.952 35.616C10.8027 35.552 10.6853 35.456 10.6 35.328C10.5147 35.1787 10.472 35.0293 10.472 34.88C10.472 34.6453 10.5467 34.4533 10.696 34.304C10.8667 34.1547 11.0587 34.08 11.272 34.08C11.3573 34.08 11.4533 34.1013 11.56 34.144C11.688 34.1867 11.848 34.2507 12.04 34.336ZM33.2775 20.992C32.7655 20.7787 32.2002 20.608 31.5815 20.48C30.9842 20.352 30.1948 20.288 29.2135 20.288C28.1255 20.288 27.2615 20.5653 26.6215 21.12C25.9815 21.6533 25.6615 22.2613 25.6615 22.944C25.6615 23.6267 25.9602 24.2453 26.5575 24.8C27.1548 25.3547 28.3175 25.8347 30.0455 26.24C31.5815 26.5813 32.7655 27.0187 33.5975 27.552C34.4508 28.0853 35.0482 28.6933 35.3895 29.376C35.7308 30.0373 35.9015 30.7733 35.9015 31.584C35.9015 32.3733 35.6988 33.1307 35.2935 33.856C34.9095 34.56 34.2695 35.1467 33.3735 35.616C32.4988 36.064 31.3255 36.288 29.8535 36.288C27.7628 36.288 25.8322 35.7973 24.0615 34.816C23.7842 34.6453 23.6455 34.4107 23.6455 34.112C23.6455 33.92 23.7202 33.7387 23.8695 33.568C24.0188 33.3973 24.2108 33.312 24.4455 33.312C24.5735 33.312 24.7015 33.344 24.8295 33.408C26.3442 34.2613 28.0188 34.688 29.8535 34.688C31.3042 34.688 32.4028 34.3893 33.1495 33.792C33.9175 33.1733 34.3015 32.4373 34.3015 31.584C34.3015 30.688 33.9388 29.9413 33.2135 29.344C32.5095 28.7467 31.3468 28.2453 29.7255 27.84C28.2108 27.456 27.0375 27.0187 26.2055 26.528C25.3948 26.0373 24.8295 25.4827 24.5095 24.864C24.2108 24.2453 24.0615 23.5627 24.0615 22.816C24.0615 22.1333 24.2535 21.4827 24.6375 20.864C25.0428 20.224 25.6295 19.7013 26.3975 19.296C27.1655 18.8907 28.1042 18.688 29.2135 18.688C30.3868 18.688 31.3255 18.784 32.0295 18.976C32.7548 19.1467 33.5122 19.392 34.3015 19.712C34.6428 19.84 34.8135 20.0853 34.8135 20.448C34.8135 20.6613 34.7282 20.8533 34.5575 21.024C34.4082 21.1733 34.2268 21.248 34.0135 21.248C33.9708 21.248 33.9068 21.2373 33.8215 21.216C33.7362 21.1733 33.5548 21.0987 33.2775 20.992Z" fill="white"/>
</svg>
