<svg width="56" height="39" viewBox="0 0 56 39" fill="none" xmlns="http://www.w3.org/2000/svg">
<path d="M38.2783 3.94843C38.01 3.94843 37.828 3.98194 37.639 4.0274V4.05851H37.6717C37.7977 4.3074 38.0123 4.48927 38.171 4.71183C38.297 4.96789 38.4043 5.22395 38.5303 5.47762L38.563 5.44172C38.7823 5.28378 38.8897 5.03011 38.8897 4.64482C38.7963 4.53235 38.7823 4.41987 38.703 4.30979C38.6097 4.14945 38.409 4.07048 38.283 3.94365L38.2783 3.94843ZM13.4633 35.5228H11.3003C11.2395 31.9973 11.0293 28.4761 10.6703 24.9693H10.6517L7.36167 35.5228H5.71667L2.45 24.9693H2.42667C2.17115 28.4816 2.01942 32.0011 1.97167 35.5228H0C0.128333 30.818 0.448 26.4052 0.956667 22.2891H3.64L6.755 32.0146H6.77367L9.91667 22.2891H12.4717C13.0363 27.1111 13.3677 31.5264 13.4703 35.5228H13.4633ZM22.8363 25.759C21.9543 30.6529 20.7923 34.2138 19.355 36.4322C18.2303 38.1457 16.9983 39 15.6613 39C15.3043 39 14.868 38.8899 14.3407 38.6698V37.4876C14.5973 37.5282 14.9007 37.5498 15.2413 37.5498C15.8667 37.5498 16.3683 37.3703 16.751 37.0185C17.2107 36.5878 17.4393 36.1044 17.4393 35.5707C17.4393 35.1998 17.2597 34.4459 16.9027 33.3116L14.5367 25.759H16.66L18.3563 31.4067C18.739 32.6894 18.9 33.5844 18.8347 34.0942C19.768 31.5479 20.4167 28.7648 20.783 25.759H22.8363ZM51.5947 35.5228H45.458V22.2891H47.523V33.8955H51.5947V35.5228ZM43.848 35.8459L41.4773 34.6494C41.6873 34.4675 41.8903 34.2713 42.0723 34.0511C43.0827 32.8402 43.5843 31.0406 43.5843 28.6595C43.5843 24.2801 41.909 22.088 38.556 22.088C36.9133 22.088 35.63 22.6432 34.706 23.756C33.7027 24.9717 33.1987 26.7617 33.1987 29.1285C33.1987 31.4546 33.642 33.1633 34.538 34.2497C35.3547 35.2309 36.5843 35.7215 38.2317 35.7215C38.8477 35.7215 39.4123 35.6425 39.9233 35.4869L43.015 37.3344L43.855 35.8459H43.848ZM36.1667 32.8737C35.6417 32.0122 35.3803 30.6242 35.3803 28.7193C35.3803 25.3857 36.3697 23.7177 38.3437 23.7177C39.3773 23.7177 40.1403 24.1174 40.6233 24.9143C41.146 25.7806 41.4073 27.1542 41.4073 29.0376C41.4073 32.3975 40.418 34.0822 38.444 34.0822C37.4057 34.0822 36.6473 33.6826 36.162 32.8857L36.1667 32.8737ZM32.298 31.8566C32.298 32.9814 31.8967 33.9051 31.094 34.623C30.2913 35.341 29.2203 35.6999 27.8647 35.6999C26.5977 35.6999 25.382 35.2883 24.1943 34.4675L24.7473 33.3284C25.7693 33.8549 26.691 34.1133 27.524 34.1133C28.2987 34.1133 28.9077 33.9386 29.351 33.5868C29.5726 33.4155 29.7515 33.1929 29.8732 32.9371C29.9948 32.6813 30.0558 32.3996 30.051 32.1151C30.051 31.3254 29.5143 30.6553 28.539 30.0929C27.6337 29.5832 25.8253 28.5207 25.8253 28.5207C24.8407 27.786 24.3507 26.9987 24.3507 25.704C24.3507 24.6271 24.717 23.7656 25.4473 23.1075C26.1823 22.4422 27.1273 22.1144 28.294 22.1144C29.4887 22.1144 30.5807 22.4398 31.5607 23.0955L31.0637 24.2346C30.2806 23.8818 29.4362 23.6946 28.581 23.6842C27.9207 23.6842 27.4097 23.847 27.055 24.1772C26.875 24.3301 26.7299 24.5217 26.6299 24.7383C26.53 24.955 26.4775 25.1915 26.4763 25.4312C26.4763 26.2161 27.0223 26.891 28.0303 27.4653C28.9473 27.9798 30.8 29.0687 30.8 29.0687C31.8103 29.7986 32.312 30.5763 32.312 31.8638L32.298 31.8566ZM54.1893 17.8523C52.941 17.8188 51.9727 17.948 51.163 18.3022C50.9297 18.3979 50.5563 18.3979 50.5237 18.7018C50.652 18.8287 50.6707 19.0369 50.7803 19.2139C50.967 19.5346 51.289 19.963 51.5877 20.1879C51.9143 20.4512 52.241 20.7048 52.584 20.9298C53.1907 21.3127 53.879 21.54 54.474 21.9253C54.8123 22.1503 55.1577 22.435 55.5007 22.6743C55.671 22.794 55.7807 23.0094 56 23.086V23.0381C55.8927 22.8945 55.86 22.6863 55.755 22.526C55.5987 22.3656 55.4423 22.2221 55.2883 22.0641C54.8302 21.4449 54.2835 20.9003 53.6667 20.4488C53.1673 20.0994 52.0753 19.6112 51.87 19.0249L51.8397 18.9914C52.1803 18.9603 52.5863 18.8334 52.913 18.7377C53.4427 18.5941 53.928 18.6252 54.4763 18.4841C54.7237 18.4194 54.9733 18.3405 55.223 18.2591V18.1155C54.943 17.8283 54.733 17.4383 54.4437 17.1702C53.6361 16.4463 52.7748 15.7878 51.8677 15.2007C51.3777 14.8801 50.757 14.6743 50.2413 14.4014C50.0547 14.3057 49.742 14.2579 49.6347 14.0975C49.3547 13.7481 49.1913 13.2839 48.993 12.8675C48.5348 11.9559 48.1091 11.0276 47.7167 10.0843C47.4367 9.45732 47.2663 8.83273 46.9233 8.25839C45.3133 5.53744 43.5703 3.88861 40.8893 2.27566C40.313 1.94063 39.6223 1.79705 38.892 1.61996C38.5023 1.60081 38.1127 1.5721 37.7253 1.55534C37.4687 1.44287 37.2213 1.13895 37.002 0.992968C36.1153 0.418627 33.8193 -0.825779 33.166 0.820666C32.746 1.85927 33.789 2.88351 34.1507 3.40999C34.419 3.77613 34.7573 4.19492 34.944 4.60653C35.0537 4.88413 35.084 5.16891 35.1937 5.45847C35.441 6.16204 35.6767 6.94697 36.0033 7.60507C36.1737 7.9401 36.3603 8.29189 36.5797 8.59342C36.7057 8.76811 36.9203 8.84948 36.9693 9.13665C36.75 9.46211 36.736 9.93594 36.61 10.3332C36.05 12.1448 36.2693 14.3847 37.0627 15.7176C37.3123 16.1149 37.9073 16.9956 38.703 16.6581C39.403 16.371 39.249 15.4616 39.4497 14.6599C39.4963 14.4684 39.466 14.3416 39.5617 14.2124V14.2483C39.781 14.6982 40.0003 15.1265 40.201 15.5764C40.6817 16.3614 41.5217 17.175 42.224 17.7183C42.5973 18.0054 42.8937 18.5032 43.3603 18.6803V18.6324H43.3253C43.225 18.4936 43.092 18.4266 42.966 18.3141C42.6701 18.0171 42.3971 17.6971 42.1493 17.3569C41.4919 16.4356 40.909 15.4608 40.4063 14.4421C40.1497 13.9396 39.935 13.3987 39.7297 12.9034C39.6363 12.7119 39.6363 12.4248 39.48 12.329C39.2467 12.6784 38.9037 12.9823 38.7333 13.4131C38.437 14.1023 38.4067 14.9495 38.2947 15.8301C38.2317 15.8469 38.262 15.8301 38.2317 15.8636C37.7323 15.7392 37.562 15.2079 37.3753 14.7628C36.9087 13.6261 36.8317 11.8002 37.2353 10.4911C37.345 10.1561 37.8117 9.09836 37.625 8.77769C37.527 8.47376 37.219 8.29907 37.0487 8.05258C36.8296 7.73177 36.642 7.38948 36.4887 7.03073C36.1153 6.13572 35.9287 5.14498 35.5227 4.24996C35.336 3.83596 35.0093 3.40281 34.7433 3.02231C34.447 2.59155 34.1203 2.28763 33.8847 1.7779C33.8077 1.60321 33.698 1.31364 33.8217 1.1222C33.8543 0.992969 33.9197 0.942714 34.041 0.906818C34.2463 0.734515 34.8227 0.959465 35.0257 1.05519C35.602 1.2945 36.0873 1.51945 36.5703 1.85448C36.7897 2.01242 37.0253 2.31635 37.3053 2.39532H37.632C38.1313 2.50779 38.6937 2.42882 39.1603 2.57001C39.9887 2.84283 40.7353 3.24008 41.405 3.67083C43.4685 5.02272 45.1468 6.91 46.27 9.14143C46.4567 9.50997 46.5383 9.8474 46.7087 10.2303C47.0353 11.02 47.439 11.8169 47.7703 12.5803C48.097 13.3341 48.412 14.1023 48.881 14.7269C49.1143 15.0619 50.0523 15.2366 50.4723 15.4113C50.7827 15.5549 51.2657 15.6865 51.5457 15.8612C52.0823 16.1963 52.605 16.5792 53.109 16.9477C53.3657 17.1296 54.1427 17.5292 54.1893 17.8523Z" fill="white"/>
</svg>
