<svg width="68" height="44" viewBox="0 0 68 44" fill="none" xmlns="http://www.w3.org/2000/svg">
<path d="M33.6069 44C33.3838 44 33.1606 43.9326 32.9588 43.8204L30.9188 42.5408C30.6106 42.3612 30.7594 42.2938 30.8656 42.2601C31.2694 42.1142 31.3544 42.0805 31.79 41.8111C31.8325 41.7887 31.8963 41.7999 31.9388 41.8224L33.5112 42.8102C33.5644 42.8438 33.6494 42.8438 33.7025 42.8102L39.8438 39.061C39.8969 39.0274 39.9394 38.96 39.9394 38.8814V31.3944C39.9394 31.3159 39.9075 31.2485 39.8438 31.2148L33.7025 27.4769C33.6494 27.4433 33.575 27.4433 33.5112 27.4769L27.37 31.2148C27.3063 31.2485 27.2744 31.3271 27.2744 31.3944V38.8814C27.2744 38.9488 27.3169 39.0161 27.37 39.0498L29.0488 40.0713C29.9625 40.554 30.5256 39.9815 30.5256 39.4202V32.023C30.5256 31.922 30.6 31.8322 30.7063 31.8322H31.4819C31.5775 31.8322 31.6625 31.9108 31.6625 32.023V39.4202C31.6625 40.7111 31.0037 41.4407 29.8456 41.4407C29.495 41.4407 29.2081 41.4407 28.4325 41.0366L26.8175 40.0601C26.4244 39.8131 26.1694 39.3641 26.1694 38.8814V31.3944C26.1694 30.9118 26.4138 30.4515 26.8175 30.2158L32.9588 26.4667C33.3519 26.231 33.8619 26.231 34.2444 26.4667L40.3856 30.2158C40.7788 30.4628 41.0337 30.9118 41.0337 31.3944V38.8814C41.0337 39.3641 40.7894 39.8243 40.3856 40.0601L34.2444 43.8092C34.0637 43.9326 33.8406 44 33.6069 44ZM38.5688 36.614C38.5688 35.2109 37.6763 34.8405 35.785 34.5711C33.8725 34.3017 33.6813 34.167 33.6813 33.6955C33.6813 33.3027 33.8406 32.7863 35.2537 32.7863C36.5181 32.7863 36.9856 33.0782 37.1769 33.9762C37.1981 34.066 37.2619 34.1221 37.3469 34.1221H38.1437C38.1969 34.1221 38.2394 34.0996 38.2713 34.066C38.3031 34.0211 38.3244 33.9762 38.3138 33.92C38.1863 32.371 37.2194 31.6526 35.2537 31.6526C33.5006 31.6526 32.4594 32.4383 32.4594 33.7404C32.4594 35.166 33.5006 35.5476 35.1794 35.7272C37.1875 35.9405 37.3469 36.2436 37.3469 36.6589C37.3469 37.3885 36.7944 37.6916 35.4981 37.6916C33.8725 37.6916 33.5113 37.2651 33.3944 36.412C33.3838 36.3222 33.3094 36.2548 33.2137 36.2548H32.4169C32.3213 36.2548 32.2363 36.3334 32.2363 36.4456C32.2363 37.5344 32.7994 38.8365 35.4875 38.8365C37.4531 38.8365 38.5688 38.0283 38.5688 36.614ZM44.3594 30.9903C44.3594 31.6751 43.8281 32.2363 43.18 32.2363C42.5319 32.2363 42.0006 31.6751 42.0006 30.9903C42.0006 30.2832 42.5531 29.7444 43.18 29.7444C43.8175 29.7331 44.3594 30.2832 44.3594 30.9903ZM44.1681 30.9903C44.1681 30.4066 43.7219 29.9464 43.1694 29.9464C42.6275 29.9464 42.1813 30.4066 42.1813 30.9903C42.1813 31.574 42.6275 32.0455 43.1694 32.0455C43.7219 32.0342 44.1681 31.5628 44.1681 30.9903ZM43.69 31.6863H43.4138C43.4031 31.6189 43.3606 31.2597 43.3606 31.2485C43.3394 31.1699 43.3181 31.125 43.2225 31.125H42.9888V31.6863H42.7337V30.2832H43.1906C43.35 30.2832 43.6581 30.2832 43.6581 30.6536C43.6581 30.9118 43.4988 30.9679 43.4031 31.0016C43.5838 31.0128 43.5944 31.1363 43.6263 31.3159C43.6369 31.4281 43.6581 31.6189 43.69 31.6863ZM43.3925 30.6985C43.3925 30.5077 43.265 30.5077 43.2013 30.5077H42.9888V30.9005H43.1906C43.3606 30.9005 43.3925 30.7771 43.3925 30.6985ZM14.5881 14.703C14.5881 14.3999 14.4394 14.1305 14.195 13.9846L7.68188 10.0222C7.57563 9.95486 7.44813 9.92119 7.32063 9.90996H7.25688C7.12938 9.90996 7.0125 9.95486 6.89563 10.0222L0.393125 13.9846C0.14875 14.1305 0 14.4111 0 14.703L0.010625 25.3667C0.010625 25.5126 0.085 25.6473 0.201875 25.7259C0.31875 25.8044 0.4675 25.8044 0.595 25.7259L4.4625 23.3798C4.70688 23.2227 4.85563 22.9533 4.85563 22.6615V17.6776C4.85563 17.3857 5.00438 17.1051 5.24875 16.9592L6.89563 15.9602C7.02313 15.8816 7.15063 15.8479 7.28875 15.8479C7.42688 15.8479 7.565 15.8816 7.68188 15.9602L9.32875 16.9592C9.57312 17.1051 9.72188 17.3857 9.72188 17.6776V22.6615C9.72188 22.9533 9.87062 23.2339 10.115 23.3798L13.9825 25.7259C14.0994 25.8044 14.2587 25.8044 14.3756 25.7259C14.4925 25.6585 14.5669 25.5126 14.5669 25.3667L14.5881 14.703ZM50.2031 3.06277V22.8635C50.2031 23.1553 50.0544 23.436 49.81 23.5819L43.2969 27.5555C43.0525 27.7014 42.755 27.7014 42.5106 27.5555L35.9975 23.5819C35.7531 23.436 35.6044 23.1553 35.6044 22.8635V14.9163C35.6044 14.6244 35.7531 14.3438 35.9975 14.1979L42.5106 10.2243C42.755 10.0783 43.0525 10.0783 43.2969 10.2243L44.9225 11.212C45.1031 11.3243 45.3369 11.1784 45.3369 10.9651V0.413691C45.3369 0.0993936 45.6556 -0.102654 45.9213 0.0544944L49.7994 2.34437C50.0438 2.47907 50.2031 2.7597 50.2031 3.06277ZM45.3156 17.5317C45.3156 17.4531 45.2731 17.3857 45.22 17.3521L42.9888 15.9826C42.925 15.949 42.8506 15.949 42.7869 15.9826L40.5556 17.3521C40.4919 17.3857 40.46 17.4531 40.46 17.5317V20.2593C40.46 20.3379 40.5025 20.4052 40.5556 20.4389L42.7869 21.7971C42.8506 21.8308 42.925 21.8308 42.9781 21.7971L45.2094 20.4389C45.2731 20.4052 45.305 20.3379 45.305 20.2593V17.5317H45.3156ZM67.6069 17.4531C67.8512 17.3072 68 17.0265 68 16.7347V14.8152C68 14.5234 67.8512 14.2428 67.6069 14.0968L61.1363 10.1232C60.8919 9.97731 60.5944 9.97731 60.35 10.1232L53.8369 14.0968C53.5925 14.2428 53.4437 14.5234 53.4437 14.8152V22.7625C53.4437 23.0656 53.5925 23.3349 53.8369 23.4809L60.3075 27.3759C60.5413 27.5218 60.8388 27.5218 61.0831 27.3759L64.9931 25.0748C65.2588 24.9177 65.2588 24.5136 64.9931 24.3564L58.4375 20.3828C58.31 20.3042 58.2356 20.1695 58.2356 20.0236V17.5317C58.2356 17.3857 58.31 17.251 58.4375 17.1725L60.4775 15.9265C60.5944 15.8479 60.7537 15.8479 60.8706 15.9265L62.9106 17.1725C63.0275 17.251 63.1125 17.3857 63.1125 17.5317V19.4848C63.1125 19.7991 63.4419 20.0011 63.7075 19.844L67.6069 17.4531ZM59.3938 17.846C59.3513 17.8796 59.3194 17.9245 59.3194 17.9807V19.5073C59.3194 19.5634 59.3513 19.6195 59.3938 19.642L60.6475 20.4052C60.69 20.4389 60.7537 20.4389 60.7962 20.4052L62.05 19.642C62.0925 19.6083 62.1244 19.5634 62.1244 19.5073V17.9807C62.1244 17.9245 62.0925 17.8684 62.05 17.846L60.7962 17.0827C60.7537 17.049 60.69 17.049 60.6475 17.0827L59.3938 17.846ZM32.385 22.7288V14.8265C32.385 14.5346 32.215 14.254 31.9706 14.1081L25.4788 10.1569C25.2556 10.0222 24.9475 9.99976 24.6925 10.1569L18.2006 14.1081C17.9563 14.254 17.7863 14.5234 17.7863 14.8265V22.7288C17.7863 23.0431 17.9881 23.3125 18.2113 23.4472L24.7138 27.3984C24.9688 27.5555 25.2663 27.5443 25.5 27.3984L31.9813 23.4472C32.1725 23.3349 32.3106 23.1441 32.3638 22.9196C32.3744 22.8635 32.385 22.7962 32.385 22.7288ZM24.4906 8.7089L24.4056 8.76502H24.5225L24.4906 8.7089ZM32.5869 23.3237L32.5444 23.2451V23.3462L32.5869 23.3237Z" fill="white"/>
</svg>
