<svg width="36" height="36" viewBox="0 0 36 36" fill="none" xmlns="http://www.w3.org/2000/svg">
<path d="M16.185 15.1881C15.5661 15.506 15.0668 15.9802 14.7509 16.5504C14.435 17.1205 14.3158 17.7614 14.409 18.3918C14.5023 19.0221 14.8036 19.6137 15.2748 20.0919C15.7461 20.5697 16.3663 20.9129 17.0566 21.0773C17.7467 21.2418 18.4766 21.2207 19.1535 21.0162C19.83 20.8119 20.4236 20.4335 20.8587 19.929C21.2938 19.4247 21.5509 18.8167 21.5977 18.1823C21.6441 17.5477 21.4784 16.9153 21.1211 16.3647C20.6419 15.6265 19.8525 15.0877 18.9269 14.867C18.0012 14.6466 17.015 14.762 16.185 15.1881ZM32.3814 18.6759C32.144 18.4348 31.8938 18.193 31.6302 17.9504C31.8145 17.7785 31.9924 17.6066 32.1644 17.4347C35.4137 14.1871 36.785 10.9301 35.5143 8.97199C34.2958 7.09469 30.6717 6.53525 26.1342 7.32C25.6872 7.39775 25.2428 7.48561 24.8008 7.58327C24.7163 7.32383 24.6262 7.06576 24.5307 6.80923C22.9915 2.6827 20.5051 -0.00137702 17.9635 5.29999e-07C15.5265 0.00107196 13.1713 2.5148 11.6689 6.40347C11.5209 6.78704 11.3843 7.17398 11.2585 7.56398C10.9631 7.49939 10.6663 7.43985 10.3683 7.3852C5.58107 6.51077 1.72515 7.08673 0.456928 9.04592C-0.758985 10.9246 0.512673 13.9955 3.54979 17.0956C3.85088 17.4023 4.16058 17.7021 4.47889 17.9953C4.10381 18.339 3.74851 18.6827 3.41731 19.0243C0.454003 22.0806 -0.745048 25.1014 0.468972 26.972C1.72291 28.9042 5.52446 29.5359 10.1515 28.7259C10.5266 28.6596 10.8995 28.5853 11.2702 28.5028C11.4062 28.9244 11.5552 29.3428 11.7174 29.7572C13.2133 33.5679 15.5553 36.0008 17.9838 36C20.4915 35.9986 23.0056 33.3848 24.5286 29.4142C24.6491 29.1005 24.7628 28.7746 24.8708 28.4391C25.3498 28.5452 25.8319 28.6391 26.3171 28.7213C30.7754 29.4716 34.3144 28.8816 35.5264 27.0096C36.7779 25.0759 35.4877 21.8327 32.3814 18.6759ZM1.95501 9.81321C2.7358 8.60724 5.88698 8.13674 10.0204 8.89163C10.2845 8.94 10.5533 8.99403 10.8263 9.05372C10.4229 10.6417 10.1381 12.2518 9.97398 13.8735C8.4826 14.8068 7.06074 15.8252 5.71716 16.9218C5.42106 16.6495 5.13304 16.3705 4.85276 16.085C2.2506 13.4288 1.22223 10.9454 1.95501 9.81321ZM9.81913 20.1237C8.78611 19.4279 7.82604 18.7151 6.95476 17.9979C7.82553 17.2855 8.78611 16.5748 9.81706 15.881C9.78007 16.5879 9.76166 17.2955 9.76201 18.0035C9.76252 18.7105 9.78162 19.4172 9.81913 20.1237ZM9.81792 27.2167C8.06417 27.5637 6.2538 27.6205 4.47682 27.3845C3.98973 27.3507 3.51572 27.2285 3.08369 27.0253C2.65183 26.8221 2.27142 26.5423 1.96585 26.2032C1.22928 25.0679 2.1921 22.6428 4.72647 20.0287C5.04495 19.7011 5.37409 19.3821 5.71355 19.0716C7.0573 20.1741 8.48157 21.1965 9.97707 22.1317C10.1435 23.7741 10.4315 25.4046 10.8394 27.0133C10.5008 27.0886 10.1605 27.1564 9.81792 27.2167ZM24.1861 12.746C23.5075 12.3657 22.8203 11.9976 22.125 11.6415C21.4406 11.291 20.7482 10.9538 20.0473 10.6298C21.2472 10.181 22.4268 9.7976 23.5653 9.48536C23.8339 10.5623 24.0409 11.6506 24.1861 12.746ZM13.3038 6.90337C14.5911 3.57138 16.4957 1.53842 17.9646 1.53781C19.5287 1.53719 21.561 3.73071 22.89 7.29352C22.9763 7.52587 23.0579 7.75944 23.1348 7.99423C21.3891 8.47592 19.6808 9.06 18.0217 9.74235C16.3691 9.05204 14.6664 8.46153 12.9247 7.97495C13.0412 7.61495 13.1675 7.25786 13.3038 6.90337ZM12.4936 9.46622C13.6812 9.79883 14.8493 10.1845 15.9933 10.6217C14.5758 11.2725 13.195 11.9813 11.8508 12.7483C12.0132 11.5999 12.2293 10.4995 12.4936 9.46622ZM11.8539 23.2554C12.5242 23.6371 13.2043 24.0047 13.8943 24.3582C14.598 24.7188 15.3111 25.0639 16.0336 25.3942C14.881 25.8467 13.7028 26.246 12.504 26.591C12.2367 25.5433 12.0182 24.4237 11.8539 23.2554ZM22.8926 28.9172C22.3542 30.442 21.5053 31.8657 20.3874 33.1169C20.1113 33.4756 19.7551 33.7798 19.3417 34.0111C18.9281 34.2422 18.4658 34.3956 17.9828 34.4617C16.5093 34.4625 14.6288 32.5087 13.3495 29.2498C13.1988 28.8646 13.0601 28.4758 12.9337 28.0837C14.6836 27.5813 16.3934 26.9741 18.0511 26.2662C19.724 26.9529 21.4457 27.5412 23.2052 28.0275C23.1092 28.3261 23.0049 28.6228 22.8926 28.9172ZM23.6255 26.5336C22.4738 26.2169 21.2771 25.8272 20.0602 25.3717C20.7462 25.0505 21.4375 24.7111 22.1334 24.3539C22.8476 23.987 23.544 23.6109 24.2217 23.2255C24.0868 24.3366 23.8877 25.4408 23.6255 26.5336ZM24.5285 17.9968C24.53 19.0899 24.4916 20.1822 24.4133 21.2735C23.4165 21.8738 22.3642 22.4597 21.269 23.0222C20.1787 23.5823 19.0982 24.097 18.0384 24.5628C16.9231 24.0872 15.8294 23.5748 14.7569 23.0256C13.6907 22.4795 12.6489 21.8982 11.6316 21.2815C11.5385 20.1903 11.4917 19.0973 11.491 18.0023C11.4901 16.9081 11.5362 15.8152 11.6288 14.7234C12.6253 14.1179 13.6701 13.5323 14.7502 12.9776C15.8354 12.4202 16.9295 11.9076 18.0174 11.443C19.1189 11.9193 20.2008 12.4298 21.2625 12.9742C22.3282 13.519 23.3728 14.0942 24.3967 14.6998C24.4846 15.7971 24.5285 16.8961 24.5285 17.9968ZM26.4642 8.8298C30.352 8.15709 33.283 8.60954 34.0173 9.74097C34.7994 10.9463 33.6785 13.6082 30.8733 16.4123C30.7183 16.5672 30.5574 16.7224 30.3907 16.8785C29.0241 15.7794 27.5747 14.7644 26.0529 13.8404C25.8994 12.2365 25.6251 10.6436 25.2325 9.0724C25.6511 8.98071 26.0616 8.8999 26.4642 8.8298ZM26.2017 15.8222C27.228 16.489 28.2151 17.2027 29.1583 17.9604C28.219 18.7306 27.2354 19.4565 26.211 20.1352C26.2423 19.4226 26.2576 18.7094 26.2573 17.9962C26.2569 17.2713 26.2383 16.5465 26.2017 15.8222ZM34.0281 26.2419C33.2928 27.3781 30.4511 27.8518 26.6382 27.2102C26.2013 27.1367 25.753 27.0494 25.2934 26.9481C25.6766 25.3564 25.9386 23.7439 26.0775 22.1209C27.5965 21.1809 29.0415 20.1488 30.4014 19.0324C30.6395 19.2522 30.8658 19.4712 31.0805 19.689C32.2966 20.8655 33.259 22.2308 33.9194 23.7173C34.1305 24.1091 34.2492 24.5354 34.268 24.9695C34.2866 25.4039 34.205 25.8369 34.0281 26.2419Z" fill="white"/>
</svg>
